Coordinates
version=1
nRows=13
nColumns=40
inDegrees=yes

Units are S.I. units (second, meters, Newtons, ...)
Angles are in degrees.

endheader
time	pelvis_tilt	pelvis_list	pelvis_rotation	pelvis_tx	pelvis_ty	pelvis_tz	hip_flexion_r	hip_adduction_r	hip_rotation_r	knee_angle_r	knee_angle_r_beta	ankle_angle_r	subtalar_angle_r	mtp_angle_r	hip_flexion_l	hip_adduction_l	hip_rotation_l	knee_angle_l	knee_angle_l_beta	ankle_angle_l	subtalar_angle_l	mtp_angle_l	lumbar_extension	lumbar_bending	lumbar_rotation	arm_flex_r	arm_add_r	arm_rot_r	elbow_flex_r	pro_sup_r	wrist_flex_r	wrist_dev_r	arm_flex_l	arm_add_l	arm_rot_l	elbow_flex_l	pro_sup_l	wrist_flex_l	wrist_dev_l
     26.14000000	     -0.68383615	     -3.54040696	      1.40057041	      1.08966916	      0.92927130	      0.44305537	     28.05718541	     -6.79002230	     -4.32821992	     68.54416388	     68.54416388	     -2.72856387	    -14.82054425	     -1.02334045	     15.21190003	     -4.54482802	     -3.31829341	     26.49849276	     26.49849276	     14.04274510	    -13.04805835	     -0.16128297	    -10.49588465	      3.04785134	      1.17178118	     10.67151213	    -12.98550256	     -1.98352723	     54.83898950	     45.26551455	      0.00000000	      0.00000000	     12.38784812	    -15.90522109	      1.98425764	     41.56324613	     45.38471242	      0.00000000	      0.00000000
     26.15350000	     -0.60325017	     -3.76969898	      0.94430425	      1.08896881	      0.93033767	      0.44310867	     28.80741895	     -6.50684657	     -4.45386412	     67.05689985	     67.05689985	     -2.46461915	    -15.16159799	     -1.01018063	     14.42721540	     -4.82555128	     -3.61432625	     26.00758354	     26.00758354	     14.23998453	    -13.05219575	     -0.12972723	    -10.69781893	      3.38192698	      1.61024583	      8.58788136	    -13.14958773	     -1.86355189	     52.74969805	     45.32775673	      0.00000000	      0.00000000	     13.80251557	    -16.18559366	      1.73864079	     42.72299759	     45.44876515	      0.00000000	      0.00000000
     26.16700000	     -0.52690817	     -3.97737372	      0.48805011	      1.08821830	      0.93137392	      0.44321106	     29.45563902	     -6.22497362	     -4.60999608	     65.35812487	     65.35812487	     -2.18905045	    -15.47727638	     -0.99308852	     13.64474577	     -5.07413532	     -3.93224683	     25.50190862	     25.50190862	     14.38170799	    -13.11162292	     -0.14135018	    -10.91760691	      3.66759378	      2.03305994	      6.81702604	    -13.17909030	     -1.92859365	     49.89718900	     45.42824542	      0.00000000	      0.00000000	     15.10460475	    -16.49673046	      1.49159364	     44.20966217	     45.51761007	      0.00000000	      0.00000000
     26.18050000	     -0.46327814	     -4.18524462	      0.02340949	      1.08743529	      0.93235698	      0.44334550	     30.00215773	     -5.90215587	     -4.74581362	     63.40173949	     63.40173949	     -1.91771499	    -15.64574662	     -0.86348476	     12.86279403	     -5.31020333	     -4.21521443	     24.96516122	     24.96516122	     14.48697752	    -13.16928586	     -0.17408208	    -11.16096819	      3.97119377	      2.28294573	      5.32319797	    -13.10928136	     -2.10363192	     46.82272931	     45.54380295	      0.00000000	      0.00000000	     16.25063485	    -16.90600671	      1.21314911	     45.77496430	     45.58793488	      0.00000000	      0.00000000
     26.19400000	     -0.59900559	     -4.31252540	     -0.36836120	      1.08653334	      0.93280861	      0.44346790	     30.67759098	     -5.73787861	     -5.03892528	     61.25383316	     61.25383316	     -1.51581619	    -15.61495257	     -0.70757562	     12.43337595	     -5.45238099	     -4.47121013	     24.63370184	     24.63370184	     14.64184263	    -13.27274586	     -0.16482565	    -11.13337758	      4.24369154	      1.86976441	      3.70071450	    -12.93220179	     -2.08084244	     45.59597913	     45.57913149	      0.00000000	      0.00000000	     17.18614974	    -17.73595599	      0.93053622	     46.40404162	     45.63432074	      0.00000000	      0.00000000
     26.20750000	     -0.54176956	     -4.51781976	     -0.85316051	      1.08576634	      0.93380908	      0.44385973	     30.92243964	     -5.31469039	     -5.20936038	     58.59418332	     58.59418332	     -1.22120453	    -15.67485554	     -0.76896546	     11.54991294	     -5.69088155	     -4.85987418	     23.87155340	     23.87155340	     14.46279227	    -13.34686032	     -0.73108667	    -11.34059548	      4.47993694	      1.45088206	      4.91479295	    -11.95126520	     -3.90506692	     36.70993200	     46.01898436	      0.00000000	      0.00000000	     16.92594158	    -18.53927181	      0.00767972	     50.29617276	     45.82698972	      0.00000000	      0.00000000
     26.22100000	     -0.66290693	     -4.68718627	     -1.27516457	      1.08487635	      0.93433555	      0.44423871	     31.22966223	     -4.97182992	     -5.49662565	     55.63027506	     55.63027506	     -0.72362911	    -15.30508445	     -0.62986060	     11.01577605	     -5.87685742	     -5.12905607	     23.36998704	     23.36998704	     14.57994410	    -13.40599614	     -0.65781725	    -11.42000978	      4.80185121	      1.55217888	      3.26680796	    -12.11104437	     -3.96188199	     35.54381404	     46.05619663	      0.00000000	      0.00000000	     17.94872062	    -18.94134191	     -0.39429079	     51.26343720	     45.89074546	      0.00000000	      0.00000000
     26.23450000	     -0.75142416	     -4.78174260	     -1.77467392	      1.08400349	      0.93481395	      0.44487574	     31.33117210	     -4.59695991	     -5.66400418	     52.22188033	     52.22188033	     -0.63437292	    -14.83485423	     -1.87240520	     10.40230957	     -6.02391894	     -5.59534360	     22.81407092	     22.81407092	     14.52902842	    -13.37900456	     -1.10110915	    -11.58333893	      4.91905627	      1.42726830	      3.10928918	    -11.79969341	     -5.44847601	     30.99859270	     46.32490917	      0.00000000	      0.00000000	     18.09754020	    -19.41490503	     -1.82681876	     54.27052220	     46.12233123	      0.00000000	      0.00000000
     26.24800000	     -1.04604316	     -4.90903353	     -2.19923709	      1.08306734	      0.93495353	      0.44559570	     31.49937022	     -4.14351806	     -5.87263346	     48.52199096	     48.52199096	     -0.05579431	    -13.79875004	     -1.78450316	     10.06437084	     -6.18978148	     -5.89647479	     22.31523570	     22.31523570	     14.62813820	    -13.40597968	     -1.03224359	    -11.50313378	      5.16170723	      1.43843961	      1.61168653	    -11.98617851	     -5.52757036	     30.12519535	     46.35393692	      0.00000000	      0.00000000	     18.98470066	    -19.89126215	     -2.16438984	     55.04724971	     46.17359099	      0.00000000	      0.00000000
     26.26150000	     -1.17890294	     -4.90397373	     -2.68978783	      1.08235539	      0.93522087	      0.44636367	     31.25267858	     -3.84007741	     -6.15944332	     44.37233326	     44.37233326	      0.25915734	    -12.18096431	     -2.75619460	      9.47689073	     -6.22807299	     -6.41596871	     21.74289724	     21.74289724	     14.67196839	    -13.26695297	     -1.24360637	    -11.63181444	      5.20914451	      1.89633540	      0.42781041	    -12.21179489	     -6.13705789	     28.04925887	     46.47473759	      0.00000000	      0.00000000	     19.71115368	    -19.89880488	     -2.83477990	     57.23018479	     46.29197173	      0.00000000	      0.00000000
     26.27500000	     -1.51913883	     -4.98991788	     -3.09128464	      1.08157437	      0.93515613	      0.44732898	     31.02029860	     -3.32011983	     -6.37048157	     39.91774597	     39.91774597	      0.72106258	    -10.31942429	     -2.67674695	      9.20810073	     -6.37277835	     -6.73632482	     21.29911691	     21.29911691	     14.74525182	    -13.23525862	     -1.26035713	    -11.51123553	      5.42088522	      1.87302621	     -0.83962857	    -12.37777724	     -6.27167000	     27.21698167	     46.50951765	      0.00000000	      0.00000000	     20.43479795	    -20.34759051	     -3.17220999	     58.11201186	     46.34298512	      0.00000000	      0.00000000
     26.28850000	     -1.65445102	     -4.96660621	     -3.46511566	      1.08112298	      0.93520586	      0.44828147	     30.33091352	     -2.98819502	     -6.81862521	     35.23453908	     35.23453908	      1.15607798	     -7.54651949	     -2.78475122	      8.65796057	     -6.39676593	     -7.16916791	     20.79743737	     20.79743737	     14.85173067	    -13.03895079	     -1.42981205	    -11.62551771	      5.47349138	      2.14894730	     -2.11539947	    -12.66683439	     -6.50208867	     26.10306266	     46.56540457	      0.00000000	      0.00000000	     21.15988995	    -20.44856335	     -3.58995167	     59.65426378	     46.41296451	      0.00000000	      0.00000000
     26.30200000	     -1.93630297	     -4.90274102	     -3.81509247	      1.08075730	      0.93492699	      0.44938205	     29.64238294	     -2.61925908	     -7.25609201	     30.48457795	     30.48457795	      1.38800534	     -4.68495518	     -2.51498331	      8.28598409	     -6.38983819	     -7.58532266	     20.30675013	     20.30675013	     14.91187621	    -12.83967166	     -1.66629230	    -11.56992704	      5.48875865	      2.23538822	     -3.27528825	    -12.81378818	     -6.74733276	     25.17949688	     46.61603891	      0.00000000	      0.00000000	     21.68508615	    -20.66784559	     -4.02222079	     61.10467472	     46.48190849	      0.00000000	      0.00000000
